# xmcd CD database file
#
# Track frame offsets:
#	150
#	15280
#	31304
#	45980
#	60306
#	84428
#	102319
#	122536
#	136893
#	157453
#	172918
#	189895
#
# Disc length: 2733 seconds
#
# Revision: 0
# Processed by: cddbd v1.5.2PL0 Copyright (c) Steve Scherf et al.
# Submitted via: CDex 1.51
#
DISCID=860aab0c
DTITLE=Tres Womack - freak show
DYEAR=2007
DGENRE=Country
TTITLE0=No Better than I am
TTITLE1=nothing left
TTITLE2=who's respnsible
TTITLE3=freak show
TTITLE4=of my world
TTITLE5=crashing down
TTITLE6=sunday morning
TTITLE7=gather round
TTITLE8=let it go
TTITLE9=like i do
TTITLE10=around you
TTITLE11=what you see in me (acoustic)
EXTD=YEAR: 2007
EXTT0=
EXTT1=
EXTT2=
EXTT3=
EXTT4=
EXTT5=
EXTT6=
EXTT7=
EXTT8=
EXTT9=
EXTT10=
EXTT11=
PLAYORDER=
